<svg width="197" height="59" viewBox="0 0 197 59" fill="none" xmlns="http://www.w3.org/2000/svg">
<g clip-path="url(#clip0_453_469)">
<path fill-rule="evenodd" clip-rule="evenodd" d="M16.6039 0.000246639H181.391C181.979 0.000246639 182.578 5.78843e-05 183.166 0.0029618C183.574 0.00527294 183.99 0.0113668 184.4 0.0173817C184.493 0.0187356 184.585 0.0200854 184.676 0.0213871C185.774 0.032201 186.869 0.118004 187.952 0.278035C189.04 0.441991 190.093 0.748828 191.078 1.18841C193.048 2.08529 194.652 3.50701 195.663 5.2536C196.157 6.12388 196.499 7.05572 196.677 8.01714C196.859 8.97804 196.961 9.94967 196.981 10.924C196.987 11.3692 196.987 11.8158 196.987 12.2611C197 12.7871 197 13.3146 197 13.8463V44.2338C197 44.7699 197 45.2945 196.987 45.822C196.987 46.2728 196.987 46.7096 196.981 47.1605C196.961 48.1348 196.859 49.1064 196.677 50.0672C196.499 51.0292 196.157 51.9616 195.663 52.8322C195.16 53.6986 194.507 54.4896 193.727 55.1761C192.953 55.8684 192.059 56.4463 191.078 56.8875C190.093 57.3283 189.04 57.6369 187.952 57.8034C186.869 57.9621 185.774 58.0479 184.676 58.0601C184.177 58.07 183.665 58.0756 183.166 58.0756C182.578 58.0785 181.979 58.0785 181.391 58.0785H16.6039C16.0032 58.0785 15.4097 58.0785 14.8107 58.0756C14.3092 58.0756 13.8117 58.07 13.3054 58.0601C12.2055 58.0473 11.1083 57.9614 10.0229 57.8034C8.93913 57.6381 7.8895 57.3293 6.90922 56.8875C5.92776 56.4465 5.03256 55.8687 4.25781 55.1761C3.4759 54.4923 2.82413 53.7007 2.32784 52.8322C1.82948 51.9622 1.48423 51.0298 1.30407 50.0672C1.1217 49.1065 1.02356 48.1347 1.01053 47.1605C1.00015 46.8524 0.996109 46.551 0.992038 46.2471C0.99015 46.1062 0.988255 45.9648 0.985718 45.822V12.2611C0.988285 12.1183 0.990195 11.9755 0.992105 11.8326C0.996154 11.5296 1.00021 11.2265 1.01053 10.924C1.02355 9.94981 1.12169 8.97797 1.30407 8.0172C1.48473 7.05522 1.82996 6.12331 2.32784 5.25366C2.82435 4.38228 3.47603 3.58751 4.25781 2.89991C5.03551 2.21037 5.93013 1.63293 6.90922 1.18854C7.88951 0.747882 8.93925 0.440963 10.0229 0.278166C11.1081 0.118837 12.2055 0.0330635 13.3054 0.0215904C13.4105 0.0201164 13.5152 0.0185848 13.6197 0.0170571C14.0184 0.0112261 14.4133 0.0054516 14.8107 0.00315055C15.4098 0.000246639 16.0032 0.000246639 16.6039 0.000246639ZM13.1938 56.7969C13.6898 56.8068 14.1777 56.8124 14.6776 56.8124L181.537 56.8153L183.316 56.8124C183.805 56.8124 184.308 56.8068 184.789 56.7969C185.816 56.7858 186.841 56.7067 187.856 56.56C188.808 56.417 189.731 56.1479 190.593 55.7616C191.443 55.379 192.218 54.8776 192.889 54.2766C193.56 53.6876 194.123 53.0084 194.555 52.2643C194.989 51.5008 195.288 50.6828 195.441 49.839C195.609 48.949 195.703 48.0493 195.722 47.1472C195.728 46.7019 195.728 46.2693 195.728 45.797C195.741 45.278 195.741 44.7632 195.741 44.2356V13.8417C195.741 13.3191 195.741 12.8007 195.728 12.2561C195.728 11.8165 195.728 11.3747 195.723 10.9634C195.704 10.0449 195.609 9.12889 195.438 8.22268C195.284 7.38983 194.988 6.58248 194.56 5.82802C193.686 4.31925 192.3 3.09038 190.597 2.31365C189.733 1.92949 188.809 1.66134 187.856 1.51803C186.847 1.37158 185.828 1.29265 184.806 1.2819L183.308 1.26346H14.6785L13.1979 1.28119C12.1668 1.2925 11.1381 1.37214 10.1204 1.51945C9.1765 1.66099 8.262 1.92728 7.40753 2.30939C6.55749 2.69481 5.78104 3.19587 5.10647 3.79429C4.43115 4.38707 3.86864 5.07266 3.44076 5.82447C3.00634 6.58418 2.70562 7.39817 2.54902 8.23828C2.38072 9.13711 2.28992 10.046 2.2774 10.957C2.26781 11.252 2.2533 12.2561 2.2533 12.2561V45.8042C2.2533 45.8042 2.26692 46.8239 2.27732 47.1302C2.29039 48.0427 2.38172 48.953 2.55053 49.8532C2.70684 50.691 3.00733 51.5027 3.44152 52.2599C3.87098 53.0122 4.43662 53.6973 5.11604 54.288C5.78576 54.8857 6.55974 55.3842 7.40833 55.7643C8.26477 56.1477 9.18101 56.4159 10.1268 56.56C11.1411 56.7059 12.1663 56.7851 13.1938 56.7969Z" fill="#5368F8"/>
<path d="M14.6776 56.8127C14.1777 56.8127 13.6898 56.807 13.1938 56.7971C12.1663 56.7853 11.1411 56.7061 10.1268 56.5602C9.181 56.4161 8.26477 56.1479 7.40832 55.7646C6.55974 55.3844 5.78576 54.8859 5.11603 54.2882C4.43662 53.6975 3.87097 53.0124 3.44151 52.2601C3.00732 51.5029 2.70684 50.6912 2.55052 49.8534C2.38172 48.9532 2.29039 48.0429 2.27732 47.1304C2.26692 46.8241 2.2533 45.8044 2.2533 45.8044V12.2563C2.2533 12.2563 2.2678 11.2522 2.2774 10.9572C2.28991 10.0462 2.38071 9.13733 2.54901 8.23849C2.70562 7.39839 3.00633 6.58439 3.44076 5.82469C3.86864 5.07287 4.43114 4.38728 5.10647 3.7945C5.78103 3.19608 6.55749 2.69503 7.40752 2.3096C8.26199 1.92749 9.1765 1.6612 10.1204 1.51966C11.1381 1.37235 12.1668 1.29271 13.1979 1.2814L14.6784 1.26367H183.308L184.806 1.28212C185.828 1.29286 186.847 1.37179 187.856 1.51824C188.809 1.66156 189.733 1.9297 190.597 2.31386C192.3 3.0906 193.686 4.31947 194.56 5.82823C194.988 6.58269 195.284 7.39004 195.438 8.22289C195.609 9.1291 195.704 10.0451 195.723 10.9636C195.728 11.3749 195.728 11.8167 195.728 12.2563C195.741 12.8009 195.741 13.3193 195.741 13.8419V44.2358C195.741 44.7634 195.741 45.2782 195.728 45.7973C195.728 46.2695 195.728 46.7022 195.722 47.1474C195.703 48.0495 195.609 48.9492 195.441 49.8392C195.288 50.683 194.989 51.501 194.555 52.2645C194.123 53.0086 193.56 53.6878 192.889 54.2769C192.218 54.8778 191.443 55.3792 190.593 55.7618C189.731 56.1481 188.808 56.4173 187.856 56.5602C186.841 56.7069 185.816 56.786 184.789 56.7971C184.308 56.807 183.805 56.8127 183.316 56.8127L181.537 56.8156L14.6776 56.8127Z" fill="white"/>
<path d="M48.606 29.4758C48.6217 28.264 48.9436 27.0757 49.5418 26.0216C50.14 24.9676 50.9952 24.082 52.0277 23.4472C51.3718 22.5105 50.5065 21.7396 49.5005 21.1957C48.4946 20.6519 47.3757 20.3501 46.2327 20.3144C43.7945 20.0584 41.4308 21.7733 40.1883 21.7733C38.9218 21.7733 37.0089 20.3398 34.9489 20.3822C33.6165 20.4252 32.318 20.8127 31.1798 21.5068C30.0416 22.2009 29.1027 23.178 28.4544 24.3429C25.6464 29.2047 27.7409 36.3498 30.4308 40.2797C31.7767 42.2041 33.3495 44.3536 35.4076 44.2774C37.4216 44.1939 38.1737 42.9932 40.6048 42.9932C43.0132 42.9932 43.7189 44.2774 45.8187 44.2289C47.9798 44.1938 49.3414 42.296 50.64 40.3534C51.6069 38.9823 52.351 37.4668 52.8447 35.8632C51.5891 35.3322 50.5177 34.4434 49.764 33.3075C49.0102 32.1716 48.6075 30.839 48.606 29.4758V29.4758Z" fill="#5368F8"/>
<path d="M44.6398 17.7299C45.8181 16.3153 46.3986 14.4972 46.258 12.6616C44.4578 12.8507 42.795 13.7111 41.6007 15.0713C41.0168 15.7358 40.5696 16.5089 40.2847 17.3463C39.9998 18.1838 39.8827 19.0692 39.9401 19.9519C40.8405 19.9612 41.7313 19.766 42.5454 19.3811C43.3594 18.9962 44.0755 18.4316 44.6398 17.7299Z" fill="#5368F8"/>
<path d="M74.0637 39.4059H67.191L65.5405 44.2793H62.6295L69.1392 26.2489H72.1637L78.6734 44.2793H75.7127L74.0637 39.4059ZM67.9028 37.157H73.3505L70.665 29.2478H70.5898L67.9028 37.157Z" fill="#5368F8"/>
<path d="M92.7321 37.7072C92.7321 41.7922 90.5457 44.4168 87.2461 44.4168C86.4103 44.4605 85.5791 44.268 84.8476 43.8613C84.1161 43.4545 83.5139 42.85 83.1101 42.1169H83.0476V48.628H80.3493V31.1337H82.9612V33.3201H83.0108C83.4333 32.5906 84.0456 31.9892 84.7826 31.5799C85.5197 31.1707 86.3539 30.969 87.1965 30.9961C90.5328 30.9961 92.7321 33.6335 92.7321 37.7072ZM89.9586 37.7072C89.9586 35.0458 88.5832 33.296 86.4847 33.296C84.423 33.296 83.0363 35.0826 83.0363 37.7072C83.0363 40.3559 84.423 42.1297 86.4847 42.1297C88.5833 42.1297 89.9586 40.3927 89.9586 37.7072Z" fill="#5368F8"/>
<path d="M107.201 37.7072C107.201 41.7922 105.014 44.4168 101.715 44.4168C100.879 44.4605 100.048 44.268 99.3161 43.8613C98.5846 43.4545 97.9825 42.85 97.5786 42.1169H97.5162V48.628H94.8178V31.1337H97.4296V33.3201H97.4793C97.9017 32.5906 98.5141 31.9892 99.2511 31.58C99.9882 31.1707 100.822 30.969 101.665 30.9961C105.001 30.9961 107.201 33.6335 107.201 37.7072ZM104.427 37.7072C104.427 35.0458 103.052 33.296 100.953 33.296C98.8916 33.296 97.5048 35.0826 97.5048 37.7072C97.5048 40.3559 98.8916 42.1297 100.953 42.1297C103.052 42.1297 104.427 40.3927 104.427 37.7072Z" fill="#5368F8"/>
<path d="M116.763 39.2556C116.963 41.0436 118.7 42.2176 121.074 42.2176C123.348 42.2176 124.984 41.0435 124.984 39.4313C124.984 38.0318 123.997 37.1939 121.661 36.6196L119.324 36.0567C116.013 35.2569 114.476 33.7086 114.476 31.196C114.476 28.0851 117.187 25.9482 121.037 25.9482C124.847 25.9482 127.459 28.0851 127.546 31.196H124.823C124.66 29.3966 123.172 28.3105 120.998 28.3105C118.825 28.3105 117.337 29.4094 117.337 31.0088C117.337 32.2836 118.287 33.0336 120.611 33.6078L122.598 34.0956C126.297 34.9705 127.834 36.4565 127.834 39.0938C127.834 42.467 125.147 44.5798 120.874 44.5798C116.875 44.5798 114.175 42.5167 114.001 39.2554L116.763 39.2556Z" fill="#5368F8"/>
<path d="M133.658 28.0227V31.1337H136.158V33.2705H133.658V40.5175C133.658 41.6433 134.158 42.168 135.257 42.168C135.554 42.1628 135.85 42.142 136.145 42.1055V44.2296C135.651 44.3219 135.149 44.3637 134.646 44.3544C131.985 44.3544 130.947 43.3547 130.947 40.8053V33.2705H129.035V31.1337H130.947V28.0227H133.658Z" fill="#5368F8"/>
<path d="M137.605 37.7072C137.605 33.5711 140.041 30.972 143.84 30.972C147.651 30.972 150.076 33.571 150.076 37.7072C150.076 41.8546 147.664 44.4423 143.84 44.4423C140.017 44.4423 137.605 41.8546 137.605 37.7072ZM147.327 37.7072C147.327 34.8699 146.026 33.1954 143.84 33.1954C141.653 33.1954 140.355 34.8827 140.355 37.7072C140.355 40.5558 141.653 42.2176 143.84 42.2176C146.026 42.2176 147.327 40.5558 147.327 37.7072Z" fill="#5368F8"/>
<path d="M152.301 31.1337H154.874V33.3711H154.937C155.111 32.6723 155.52 32.0548 156.096 31.6223C156.672 31.1897 157.379 30.9686 158.099 30.9961C158.41 30.995 158.72 31.0288 159.023 31.0968V33.6207C158.631 33.5007 158.221 33.4457 157.811 33.4576C157.419 33.4417 157.028 33.5109 156.665 33.6602C156.302 33.8096 155.976 34.0358 155.709 34.3231C155.442 34.6104 155.24 34.9521 155.118 35.3248C154.995 35.6975 154.955 36.0923 154.999 36.4821V44.2793H152.301L152.301 31.1337Z" fill="#5368F8"/>
<path d="M171.464 40.4183C171.101 42.8046 168.777 44.4423 165.804 44.4423C161.979 44.4423 159.606 41.8801 159.606 37.7696C159.606 33.6462 161.992 30.972 165.69 30.972C169.327 30.972 171.614 33.4704 171.614 37.4562V38.3807H162.33V38.5438C162.287 39.0275 162.347 39.5149 162.507 39.9735C162.667 40.4321 162.923 40.8514 163.257 41.2036C163.592 41.5557 163.998 41.8327 164.447 42.0161C164.897 42.1995 165.381 42.2851 165.866 42.2672C166.504 42.327 167.144 42.1793 167.69 41.8462C168.237 41.513 168.662 41.0122 168.902 40.4182L171.464 40.4183ZM162.342 36.4949H168.914C168.939 36.0599 168.873 35.6245 168.721 35.2162C168.569 34.8079 168.334 34.4355 168.031 34.1222C167.729 33.8089 167.364 33.5616 166.961 33.3957C166.559 33.2299 166.126 33.1491 165.69 33.1585C165.251 33.1559 164.815 33.2403 164.409 33.4069C164.002 33.5735 163.632 33.819 163.321 34.1291C163.01 34.4393 162.763 34.8081 162.595 35.2141C162.427 35.6202 162.341 36.0554 162.342 36.4949Z" fill="#5368F8"/>
<path d="M67.5647 12.6774C68.1304 12.6368 68.698 12.7222 69.2267 12.9276C69.7554 13.1329 70.2319 13.4531 70.6219 13.8649C71.0118 14.2767 71.3056 14.7699 71.4818 15.309C71.6581 15.8481 71.7125 16.4195 71.6412 16.9822C71.6412 19.75 70.1453 21.341 67.5647 21.341H64.4353V12.6774H67.5647ZM65.7809 20.1157H67.4144C67.8186 20.1399 68.2231 20.0736 68.5985 19.9217C68.9739 19.7698 69.3107 19.5361 69.5844 19.2377C69.8581 18.9392 70.0617 18.5835 70.1806 18.1963C70.2995 17.8092 70.3305 17.4005 70.2715 16.9998C70.3262 16.6008 70.292 16.1946 70.1713 15.8103C70.0507 15.426 69.8465 15.0732 69.5734 14.7771C69.3004 14.481 68.9652 14.249 68.5919 14.0976C68.2186 13.9463 67.8165 13.8793 67.4144 13.9017H65.7809V20.1157Z" fill="#5368F8"/>
<path d="M73.1612 18.069C73.1201 17.6393 73.1693 17.2058 73.3055 16.7963C73.4418 16.3867 73.6621 16.0101 73.9524 15.6907C74.2427 15.3713 74.5966 15.1161 74.9913 14.9415C75.386 14.7669 75.8129 14.6767 76.2445 14.6767C76.6761 14.6767 77.103 14.7669 77.4977 14.9415C77.8924 15.1161 78.2463 15.3713 78.5366 15.6907C78.8269 16.0101 79.0472 16.3867 79.1835 16.7963C79.3197 17.2058 79.3689 17.6393 79.3278 18.069C79.3697 18.4991 79.3211 18.9332 79.1852 19.3434C79.0493 19.7536 78.8291 20.1309 78.5387 20.4509C78.2483 20.7709 77.8942 21.0267 77.4991 21.2017C77.104 21.3767 76.6766 21.4671 76.2445 21.4671C75.8124 21.4671 75.385 21.3767 74.9899 21.2017C74.5948 21.0267 74.2407 20.7709 73.9503 20.4509C73.6599 20.1309 73.4397 19.7536 73.3038 19.3434C73.1679 18.9332 73.1193 18.4991 73.1612 18.069ZM78.0006 18.069C78.0006 16.6518 77.3639 15.823 76.2466 15.823C75.125 15.823 74.4941 16.6518 74.4941 18.069C74.4941 19.4976 75.1251 20.3199 76.2466 20.3199C77.364 20.3199 78.0006 19.4919 78.0006 18.069Z" fill="#5368F8"/>
<path d="M87.5248 21.3408H86.1863L84.835 16.5255H84.7329L83.3873 21.3408H82.0616L80.2594 14.8028H81.5681L82.7393 19.7917H82.8358L84.1799 14.8028H85.4178L86.762 19.7917H86.8641L88.0296 14.8028H89.3199L87.5248 21.3408Z" fill="#5368F8"/>
<path d="M90.8357 14.8028H92.0778V15.8414H92.1742C92.3378 15.4684 92.6137 15.1556 92.9634 14.9468C93.3131 14.738 93.7193 14.6436 94.1253 14.6766C94.4434 14.6526 94.7628 14.7006 95.0599 14.8169C95.357 14.9332 95.6241 15.1148 95.8414 15.3484C96.0587 15.5819 96.2207 15.8614 96.3154 16.166C96.4101 16.4707 96.435 16.7927 96.3883 17.1083V21.3408H95.098V17.4323C95.098 16.3816 94.6414 15.8591 93.6871 15.8591C93.4711 15.8491 93.2555 15.8858 93.0551 15.9669C92.8546 16.048 92.6741 16.1714 92.5258 16.3288C92.3775 16.4861 92.265 16.6737 92.196 16.8786C92.127 17.0835 92.1031 17.301 92.126 17.516V21.3408H90.8357L90.8357 14.8028Z" fill="#5368F8"/>
<path d="M98.4443 12.2505H99.7346V21.3408H98.4443V12.2505Z" fill="#5368F8"/>
<path d="M101.528 18.069C101.487 17.6393 101.536 17.2058 101.673 16.7962C101.809 16.3866 102.029 16.0101 102.32 15.6906C102.61 15.3712 102.964 15.116 103.359 14.9414C103.753 14.7667 104.18 14.6765 104.612 14.6765C105.044 14.6765 105.47 14.7667 105.865 14.9414C106.26 15.116 106.614 15.3712 106.904 15.6906C107.194 16.0101 107.415 16.3866 107.551 16.7962C107.687 17.2058 107.737 17.6393 107.696 18.069C107.737 18.4991 107.689 18.9332 107.553 19.3434C107.417 19.7536 107.197 20.1309 106.906 20.4509C106.616 20.7709 106.262 21.0266 105.867 21.2016C105.471 21.3766 105.044 21.4671 104.612 21.4671C104.18 21.4671 103.752 21.3766 103.357 21.2016C102.962 21.0266 102.608 20.7709 102.318 20.4509C102.027 20.1309 101.807 19.7536 101.671 19.3434C101.535 18.9332 101.486 18.4991 101.528 18.069ZM106.368 18.069C106.368 16.6518 105.731 15.823 104.614 15.823C103.492 15.823 102.861 16.6518 102.861 18.069C102.861 19.4976 103.492 20.3199 104.614 20.3199C105.731 20.3199 106.368 19.4919 106.368 18.069Z" fill="#5368F8"/>
<path d="M109.054 19.4919C109.054 18.315 109.93 17.6365 111.486 17.5401L113.257 17.438V16.8737C113.257 16.1831 112.8 15.7932 111.918 15.7932C111.198 15.7932 110.699 16.0577 110.556 16.5199H109.306C109.438 15.3969 110.495 14.6766 111.978 14.6766C113.617 14.6766 114.541 15.4926 114.541 16.8737V21.3408H113.299V20.422H113.197C112.99 20.7516 112.699 21.0203 112.354 21.2006C112.009 21.381 111.622 21.4665 111.233 21.4486C110.959 21.4771 110.681 21.4478 110.419 21.3626C110.156 21.2774 109.915 21.1381 109.709 20.9537C109.504 20.7694 109.34 20.5441 109.227 20.2923C109.114 20.0405 109.055 19.7678 109.054 19.4919ZM113.257 18.9332V18.3866L111.66 18.4887C110.76 18.5489 110.351 18.8552 110.351 19.4316C110.351 20.02 110.862 20.3625 111.564 20.3625C111.769 20.3833 111.977 20.3625 112.175 20.3014C112.372 20.2403 112.555 20.1401 112.713 20.0067C112.871 19.8734 113.001 19.7096 113.094 19.5252C113.187 19.3408 113.243 19.1394 113.257 18.9332Z" fill="#5368F8"/>
<path d="M116.237 18.069C116.237 16.0031 117.299 14.6943 118.951 14.6943C119.36 14.6755 119.765 14.7733 120.12 14.9765C120.475 15.1796 120.765 15.4796 120.956 15.8414H121.052V12.2505H122.343V21.3408H121.106V20.3078H121.004C120.799 20.6672 120.499 20.9634 120.137 21.1645C119.775 21.3656 119.365 21.4638 118.951 21.4486C117.288 21.4486 116.237 20.1399 116.237 18.069ZM117.57 18.069C117.57 19.4557 118.224 20.2902 119.317 20.2902C120.404 20.2902 121.077 19.4437 121.077 18.0747C121.077 16.712 120.397 15.8535 119.317 15.8535C118.231 15.8535 117.57 16.6936 117.57 18.069Z" fill="#5368F8"/>
<path d="M127.681 18.069C127.64 17.6393 127.689 17.2058 127.826 16.7963C127.962 16.3867 128.182 16.0101 128.472 15.6907C128.763 15.3713 129.117 15.1161 129.511 14.9415C129.906 14.7669 130.333 14.6767 130.765 14.6767C131.196 14.6767 131.623 14.7669 132.018 14.9415C132.412 15.1161 132.766 15.3713 133.057 15.6907C133.347 16.0101 133.567 16.3867 133.703 16.7963C133.84 17.2058 133.889 17.6393 133.848 18.069C133.89 18.4991 133.841 18.9332 133.705 19.3434C133.569 19.7536 133.349 20.1309 133.059 20.4509C132.768 20.7709 132.414 21.0267 132.019 21.2017C131.624 21.3767 131.197 21.4671 130.765 21.4671C130.332 21.4671 129.905 21.3767 129.51 21.2017C129.115 21.0267 128.761 20.7709 128.47 20.4509C128.18 20.1309 127.96 19.7536 127.824 19.3434C127.688 18.9332 127.639 18.4991 127.681 18.069ZM132.521 18.069C132.521 16.6518 131.884 15.823 130.767 15.823C129.645 15.823 129.014 16.6518 129.014 18.069C129.014 19.4976 129.645 20.3199 130.767 20.3199C131.884 20.3199 132.521 19.4919 132.521 18.069Z" fill="#5368F8"/>
<path d="M135.579 14.8028H136.821V15.8414H136.918C137.081 15.4684 137.357 15.1556 137.707 14.9468C138.057 14.738 138.463 14.6436 138.869 14.6766C139.187 14.6526 139.506 14.7006 139.803 14.8169C140.1 14.9332 140.367 15.1148 140.585 15.3484C140.802 15.5819 140.964 15.8614 141.059 16.166C141.153 16.4707 141.178 16.7927 141.132 17.1083V21.3408H139.841V17.4323C139.841 16.3816 139.385 15.8591 138.431 15.8591C138.215 15.8491 137.999 15.8858 137.798 15.9669C137.598 16.048 137.417 16.1714 137.269 16.3288C137.121 16.4861 137.008 16.6737 136.939 16.8786C136.87 17.0835 136.847 17.301 136.869 17.516V21.3408H135.579V14.8028Z" fill="#5368F8"/>
<path d="M148.423 13.175V14.8325H149.839V15.9194H148.423V19.2813C148.423 19.9662 148.705 20.266 149.347 20.266C149.512 20.2655 149.676 20.2556 149.839 20.2363V21.3111C149.607 21.3525 149.373 21.3746 149.137 21.377C147.702 21.377 147.131 20.8722 147.131 19.6117V15.9193H146.093V14.8325H147.131V13.175H148.423Z" fill="#5368F8"/>
<path d="M151.602 12.2505H152.881V15.8534H152.983C153.154 15.4769 153.438 15.1624 153.794 14.9529C154.151 14.7433 154.564 14.6488 154.976 14.6822C155.293 14.665 155.609 14.7179 155.903 14.837C156.196 14.9561 156.46 15.1386 156.675 15.3714C156.89 15.6042 157.051 15.8816 157.147 16.1838C157.242 16.486 157.27 16.8055 157.228 17.1197V21.3408H155.936V17.438C155.936 16.3937 155.45 15.8648 154.538 15.8648C154.316 15.8466 154.093 15.8771 153.885 15.9541C153.676 16.0311 153.486 16.1529 153.33 16.3107C153.173 16.4686 153.052 16.6589 152.977 16.8681C152.901 17.0774 152.872 17.3007 152.892 17.5223V21.3408H151.602L151.602 12.2505Z" fill="#5368F8"/>
<path d="M164.752 19.5755C164.576 20.173 164.196 20.6899 163.678 21.0357C163.161 21.3815 162.538 21.5342 161.918 21.467C161.488 21.4784 161.06 21.3959 160.664 21.2252C160.268 21.0546 159.915 20.7999 159.627 20.4788C159.34 20.1577 159.126 19.778 159 19.3659C158.874 18.9538 158.839 18.5192 158.898 18.0924C158.841 17.6642 158.876 17.2287 159.002 16.8154C159.127 16.4021 159.34 16.0205 159.626 15.6966C159.912 15.3727 160.264 15.114 160.659 14.9381C161.053 14.7621 161.481 14.6729 161.913 14.6766C163.732 14.6766 164.829 15.9195 164.829 17.9725V18.4228H160.213V18.4951C160.193 18.735 160.223 18.9765 160.301 19.2041C160.38 19.4317 160.505 19.6403 160.669 19.8167C160.833 19.993 161.032 20.1332 161.253 20.2281C161.475 20.3231 161.713 20.3708 161.954 20.3681C162.263 20.4051 162.575 20.3496 162.852 20.2084C163.129 20.0673 163.358 19.847 163.509 19.5755L164.752 19.5755ZM160.213 17.4685H163.515C163.531 17.249 163.501 17.0286 163.427 16.8214C163.354 16.6142 163.237 16.4247 163.085 16.2652C162.934 16.1057 162.751 15.9797 162.547 15.8952C162.344 15.8108 162.126 15.7697 161.906 15.7748C161.683 15.772 161.461 15.8139 161.254 15.898C161.048 15.9821 160.86 16.1068 160.702 16.2646C160.544 16.4225 160.42 16.6103 160.336 16.8171C160.252 17.0238 160.21 17.2453 160.213 17.4685Z" fill="#5368F8"/>
</g>
<defs>
<clipPath id="clip0_453_469">
<rect width="196.014" height="58.0783" fill="white" transform="translate(0.985718 0.000244141)"/>
</clipPath>
</defs>
</svg>
