<svg width="197" height="59" viewBox="0 0 197 59" fill="none" xmlns="http://www.w3.org/2000/svg">
<g clip-path="url(#clip0_453_468)">
<path d="M188.754 0H7.25979C3.25032 0 0 3.25032 0 7.25979V50.8185C0 54.828 3.25032 58.0783 7.25979 58.0783H188.754C192.764 58.0783 196.014 54.828 196.014 50.8185V7.25979C196.014 3.25032 192.764 0 188.754 0Z" fill="white"/>
<path d="M188.754 1.16152C190.371 1.16339 191.921 1.80652 193.065 2.94982C194.208 4.09312 194.851 5.64322 194.853 7.26003V50.8188C194.851 52.4356 194.208 53.9856 193.065 55.1289C191.921 56.2722 190.371 56.9154 188.754 56.9173H7.25979C5.64296 56.9154 4.09289 56.2723 2.94965 55.129C1.80641 53.9857 1.16335 52.4356 1.16157 50.8188V7.26003C1.16333 5.6432 1.80637 4.09308 2.94962 2.94978C4.09287 1.80648 5.64295 1.16336 7.25979 1.16152H188.754ZM188.754 0.000244141H7.25979C5.3361 0.00587497 3.49282 0.772551 2.13256 2.13281C0.772307 3.49306 0.00563083 5.33635 0 7.26003L0 50.8188C0.00563083 52.7424 0.772307 54.5857 2.13256 55.946C3.49282 57.3062 5.3361 58.0729 7.25979 58.0785H188.754C190.678 58.0729 192.521 57.3062 193.882 55.946C195.242 54.5857 196.009 52.7424 196.014 50.8188V7.26003C196.009 5.33635 195.242 3.49306 193.882 2.13281C192.521 0.772551 190.678 0.00587497 188.754 0.000244141V0.000244141Z" fill="#5368F8"/>
<path d="M68.8495 14.8729C68.8759 15.4057 68.7936 15.9383 68.6076 16.4382C68.4215 16.9382 68.1357 17.3951 67.7675 17.781C67.3548 18.209 66.8565 18.545 66.305 18.7672C65.7535 18.9893 65.1613 19.0924 64.5672 19.0699C63.9694 19.0753 63.3764 18.9611 62.8233 18.734C62.2702 18.5069 61.7681 18.1716 61.3464 17.7477C60.9247 17.3237 60.5921 16.8198 60.368 16.2655C60.1439 15.7112 60.0328 15.1176 60.0414 14.5198C60.0329 13.9219 60.144 13.3284 60.3681 12.7741C60.5922 12.2197 60.9249 11.7158 61.3465 11.2918C61.7681 10.8679 62.2703 10.5324 62.8233 10.3053C63.3764 10.0781 63.9693 9.96373 64.5672 9.96892C65.182 9.96706 65.7906 10.0913 66.3553 10.3341C66.8799 10.5467 67.3468 10.8802 67.718 11.3075L66.9522 12.0738C66.6604 11.7304 66.2936 11.4585 65.8801 11.2793C65.4666 11.1001 65.0174 11.0183 64.5672 11.0402C64.1141 11.0378 63.6652 11.127 63.2473 11.3022C62.8294 11.4775 62.4513 11.7353 62.1354 12.0602C61.8195 12.3851 61.5724 12.7704 61.409 13.193C61.2456 13.6156 61.1691 14.0669 61.1842 14.5198C61.1734 15.1981 61.3643 15.8644 61.7326 16.4341C62.101 17.0039 62.6302 17.4514 63.2533 17.7199C63.8763 17.9884 64.565 18.0659 65.2321 17.9425C65.8993 17.8191 66.5147 17.5004 67.0004 17.0267C67.4475 16.545 67.7066 15.9188 67.7306 15.262H64.5672V14.2156H68.7885C68.8284 14.4324 68.8488 14.6524 68.8495 14.8729Z" fill="#5368F8"/>
<path d="M75.542 11.2344H71.5747V13.9965H75.1522V15.0431H71.5747V17.8051H75.542V18.8757H70.456V10.1639H75.542V11.2344Z" fill="#5368F8"/>
<path d="M80.2623 18.8757H79.1421V11.2344H76.709V10.1639H82.6955V11.2344H80.2623V18.8757Z" fill="#5368F8"/>
<path d="M87.0273 18.8757V10.1639H88.146V18.8757H87.0273Z" fill="#5368F8"/>
<path d="M93.1116 18.8757H91.9914V11.2344H89.5583V10.1639H95.5448V11.2344H93.1116V18.8757Z" fill="#5368F8"/>
<path d="M106.878 17.7498C106.03 18.5952 104.881 19.0699 103.684 19.0699C102.486 19.0699 101.338 18.5952 100.49 17.7498C100.07 17.3249 99.7406 16.82 99.5201 16.2651C99.2997 15.7103 99.1931 15.1167 99.2066 14.5198C99.1931 13.9229 99.2997 13.3293 99.5201 12.7744C99.7406 12.2195 100.07 11.7146 100.49 11.2898C100.909 10.8705 101.407 10.5381 101.954 10.3114C102.502 10.0848 103.089 9.96839 103.682 9.96892C104.275 9.96945 104.862 10.0869 105.409 10.3145C105.956 10.5421 106.454 10.8755 106.872 11.2954C107.292 11.7192 107.622 12.223 107.844 12.7768C108.065 13.3307 108.173 13.9234 108.161 14.5198C108.174 15.1167 108.067 15.7101 107.847 16.2649C107.626 16.8198 107.297 17.3247 106.878 17.7498ZM101.316 17.0203C101.944 17.6473 102.796 17.9994 103.683 17.9994C104.57 17.9994 105.422 17.6473 106.05 17.0203C106.372 16.6906 106.623 16.2991 106.79 15.8693C106.956 15.4395 107.034 14.9804 107.018 14.5198C107.034 14.0592 106.956 13.6001 106.79 13.1703C106.623 12.7405 106.372 12.3489 106.05 12.0192C105.422 11.3923 104.57 11.0402 103.683 11.0402C102.796 11.0402 101.944 11.3923 101.316 12.0192C100.995 12.3492 100.743 12.7409 100.577 13.1706C100.411 13.6004 100.334 14.0593 100.349 14.5198C100.334 14.9803 100.411 15.4392 100.577 15.869C100.743 16.2987 100.995 16.6904 101.316 17.0203Z" fill="#5368F8"/>
<path d="M109.732 18.8757V10.1639H111.094L115.328 16.9409H115.377L115.328 15.262V10.1639H116.449V18.8757H115.28L110.851 11.7704H110.802L110.851 13.4493V18.8757H109.732Z" fill="#5368F8"/>
<path d="M68.8495 14.8729C68.8759 15.4057 68.7936 15.9383 68.6076 16.4382C68.4215 16.9382 68.1357 17.3951 67.7675 17.781C67.3548 18.209 66.8565 18.545 66.305 18.7672C65.7535 18.9893 65.1613 19.0924 64.5672 19.0699C63.9694 19.0753 63.3764 18.9611 62.8233 18.734C62.2702 18.5069 61.7681 18.1716 61.3464 17.7477C60.9247 17.3237 60.5921 16.8198 60.368 16.2655C60.1439 15.7112 60.0328 15.1176 60.0414 14.5198C60.0329 13.9219 60.144 13.3284 60.3681 12.7741C60.5922 12.2197 60.9249 11.7158 61.3465 11.2918C61.7681 10.8679 62.2703 10.5324 62.8233 10.3053C63.3764 10.0781 63.9693 9.96373 64.5672 9.96892C65.182 9.96706 65.7906 10.0913 66.3553 10.3341C66.8799 10.5467 67.3468 10.8802 67.718 11.3075L66.9522 12.0738C66.6604 11.7304 66.2936 11.4585 65.8801 11.2793C65.4666 11.1001 65.0174 11.0183 64.5672 11.0402C64.1141 11.0378 63.6652 11.127 63.2473 11.3022C62.8294 11.4775 62.4513 11.7353 62.1354 12.0602C61.8195 12.3851 61.5724 12.7704 61.409 13.193C61.2456 13.6156 61.1691 14.0669 61.1842 14.5198C61.1734 15.1981 61.3643 15.8644 61.7326 16.4341C62.101 17.0039 62.6302 17.4514 63.2533 17.7199C63.8763 17.9884 64.565 18.0659 65.2321 17.9425C65.8993 17.8191 66.5147 17.5004 67.0004 17.0267C67.4475 16.545 67.7066 15.9188 67.7306 15.262H64.5672V14.2156H68.7885C68.8284 14.4324 68.8488 14.6524 68.8495 14.8729Z" stroke="#5368F8" stroke-width="0.290391" stroke-miterlimit="10"/>
<path d="M75.542 11.2344H71.5747V13.9965H75.1522V15.0431H71.5747V17.8051H75.542V18.8757H70.456V10.1639H75.542V11.2344Z" stroke="#5368F8" stroke-width="0.290391" stroke-miterlimit="10"/>
<path d="M80.2623 18.8757H79.1421V11.2344H76.709V10.1639H82.6955V11.2344H80.2623V18.8757Z" stroke="#5368F8" stroke-width="0.290391" stroke-miterlimit="10"/>
<path d="M87.0273 18.8757V10.1639H88.146V18.8757H87.0273Z" stroke="#5368F8" stroke-width="0.290391" stroke-miterlimit="10"/>
<path d="M93.1116 18.8757H91.9914V11.2344H89.5583V10.1639H95.5448V11.2344H93.1116V18.8757Z" stroke="#5368F8" stroke-width="0.290391" stroke-miterlimit="10"/>
<path d="M106.878 17.7498C106.03 18.5952 104.881 19.0699 103.684 19.0699C102.486 19.0699 101.338 18.5952 100.49 17.7498C100.07 17.3249 99.7406 16.82 99.5201 16.2651C99.2997 15.7103 99.1931 15.1167 99.2066 14.5198C99.1931 13.9229 99.2997 13.3293 99.5201 12.7744C99.7406 12.2195 100.07 11.7146 100.49 11.2898C100.909 10.8705 101.407 10.5381 101.954 10.3114C102.502 10.0848 103.089 9.96839 103.682 9.96892C104.275 9.96945 104.862 10.0869 105.409 10.3145C105.956 10.5421 106.454 10.8755 106.872 11.2954C107.292 11.7192 107.622 12.223 107.844 12.7768C108.065 13.3307 108.173 13.9234 108.161 14.5198C108.174 15.1167 108.067 15.7101 107.847 16.2649C107.626 16.8198 107.297 17.3247 106.878 17.7498ZM101.316 17.0203C101.944 17.6473 102.796 17.9994 103.683 17.9994C104.57 17.9994 105.422 17.6473 106.05 17.0203C106.372 16.6906 106.623 16.2991 106.79 15.8693C106.956 15.4395 107.034 14.9804 107.018 14.5198C107.034 14.0592 106.956 13.6001 106.79 13.1703C106.623 12.7405 106.372 12.3489 106.05 12.0192C105.422 11.3923 104.57 11.0402 103.683 11.0402C102.796 11.0402 101.944 11.3923 101.316 12.0192C100.995 12.3492 100.743 12.7409 100.577 13.1706C100.411 13.6004 100.334 14.0593 100.349 14.5198C100.334 14.9803 100.411 15.4392 100.577 15.869C100.743 16.2987 100.995 16.6904 101.316 17.0203Z" stroke="#5368F8" stroke-width="0.290391" stroke-miterlimit="10"/>
<path d="M109.732 18.8757V10.1639H111.094L115.328 16.9409H115.377L115.328 15.262V10.1639H116.449V18.8757H115.28L110.851 11.7704H110.802L110.851 13.4493V18.8757H109.732Z" stroke="#5368F8" stroke-width="0.290391" stroke-miterlimit="10"/>
<path d="M98.9302 31.5825C97.7098 31.5872 96.5182 31.9533 95.5057 32.6347C94.4932 33.316 93.7054 34.2821 93.2415 35.4109C92.7777 36.5398 92.6588 37.7807 92.8997 38.9771C93.1406 40.1734 93.7306 41.2716 94.5952 42.1329C95.4598 42.9942 96.5602 43.5801 97.7575 43.8164C98.9548 44.0528 100.195 43.9291 101.322 43.461C102.449 42.9929 103.412 42.2014 104.09 41.1863C104.767 40.1713 105.129 38.9783 105.129 37.7579C105.141 36.9416 104.989 36.1313 104.681 35.3751C104.374 34.6189 103.917 33.9323 103.339 33.3561C102.76 32.78 102.072 32.3261 101.315 32.0214C100.557 31.7167 99.7464 31.5674 98.9302 31.5825V31.5825ZM98.9302 41.5006C98.1786 41.5542 97.4283 41.3802 96.777 41.0014C96.1257 40.6226 95.6035 40.0565 95.2784 39.3768C94.9533 38.697 94.8404 37.9352 94.9544 37.1904C95.0684 36.4455 95.4039 35.7523 95.9174 35.2009C96.4309 34.6495 97.0985 34.2654 97.8333 34.0988C98.5681 33.9321 99.3361 33.9905 100.037 34.2664C100.738 34.5423 101.34 35.0229 101.764 35.6456C102.189 36.2684 102.415 37.0044 102.415 37.7579C102.438 38.2339 102.366 38.7096 102.202 39.1571C102.038 39.6046 101.786 40.0149 101.461 40.3636C101.137 40.7124 100.745 40.9926 100.311 41.1879C99.876 41.3831 99.4066 41.4895 98.9302 41.5006V41.5006ZM85.4075 31.5825C84.1871 31.5871 82.9955 31.9532 81.983 32.6346C80.9705 33.3159 80.1826 34.282 79.7188 35.4108C79.2549 36.5397 79.136 37.7806 79.3769 38.977C79.6178 40.1734 80.2078 41.2716 81.0724 42.1329C81.9369 42.9942 83.0373 43.58 84.2346 43.8164C85.4319 44.0528 86.6724 43.9291 87.7995 43.461C88.9265 42.993 89.8896 42.2014 90.5671 41.1864C91.2447 40.1713 91.6062 38.9783 91.6062 37.7579C91.6182 36.9416 91.4659 36.1313 91.1583 35.3751C90.8508 34.6189 90.3943 33.9323 89.8159 33.3562C89.2376 32.7801 88.5493 32.3261 87.792 32.0214C87.0346 31.7167 86.2237 31.5675 85.4075 31.5825V31.5825ZM85.4075 41.5006C84.656 41.5542 83.9057 41.3802 83.2543 41.0014C82.603 40.6226 82.0808 40.0565 81.7557 39.3768C81.4306 38.697 81.3177 37.9352 81.4317 37.1904C81.5457 36.4455 81.8813 35.7523 82.3948 35.2009C82.9083 34.6495 83.5759 34.2654 84.3107 34.0988C85.0455 33.9321 85.8134 33.9905 86.5146 34.2664C87.2157 34.5423 87.8176 35.0229 88.2418 35.6456C88.6659 36.2684 88.8928 37.0044 88.8928 37.7579C88.9156 38.2339 88.843 38.7096 88.6792 39.1572C88.5153 39.6047 88.2636 40.0149 87.9388 40.3636C87.6141 40.7124 87.2228 40.9927 86.7881 41.1879C86.3534 41.3832 85.884 41.4895 85.4075 41.5006ZM69.3216 33.4773V36.0971H75.5907C75.5002 37.3259 74.9974 38.4881 74.1637 39.3954C73.5355 40.0357 72.78 40.5373 71.946 40.8677C71.1119 41.198 70.2179 41.3499 69.3216 41.3134C67.4892 41.2886 65.7402 40.5433 64.4532 39.2387C63.1662 37.9342 62.4446 36.1753 62.4446 34.3427C62.4446 32.5101 63.1662 30.7513 64.4532 29.4467C65.7402 28.1422 67.4892 27.3968 69.3216 27.372C71.0817 27.349 72.7797 28.0215 74.0468 29.2433L75.8947 27.3954C75.0302 26.5395 74.0034 25.8648 72.8747 25.4109C71.746 24.957 70.538 24.733 69.3216 24.7521C68.0504 24.7336 66.7882 24.968 65.6084 25.4417C64.4286 25.9153 63.3547 26.6188 62.4492 27.5112C61.5437 28.4036 60.8247 29.4671 60.3339 30.6399C59.8431 31.8127 59.5903 33.0714 59.5903 34.3427C59.5903 35.6141 59.8431 36.8727 60.3339 38.0455C60.8247 39.2183 61.5437 40.2818 62.4492 41.1742C63.3547 42.0666 64.4286 42.7701 65.6084 43.2438C66.7882 43.7174 68.0504 43.9518 69.3216 43.9333C70.5637 43.9848 71.8025 43.7716 72.9559 43.3079C74.1093 42.8441 75.1509 42.1403 76.0116 41.2433C77.5397 39.5754 78.3542 37.3756 78.2807 35.1147C78.2867 34.5657 78.2397 34.0173 78.1402 33.4773H69.3216ZM135.107 35.5123C134.736 34.3937 134.03 33.4165 133.084 32.7135C132.138 32.0104 130.999 31.6156 129.821 31.5825C129.027 31.5875 128.243 31.7532 127.516 32.0698C126.788 32.3864 126.132 32.8472 125.588 33.4245C125.043 34.0017 124.622 34.6833 124.348 35.4281C124.075 36.1729 123.955 36.9655 123.996 37.7579C123.978 38.5698 124.124 39.377 124.425 40.1312C124.727 40.8854 125.177 41.5712 125.749 42.1477C126.321 42.7241 127.003 43.1793 127.755 43.4861C128.507 43.7929 129.313 43.945 130.125 43.9333C131.142 43.939 132.145 43.6918 133.043 43.2142C133.941 42.7365 134.707 42.0432 135.271 41.1965L133.166 39.7931C132.85 40.3168 132.404 40.7496 131.871 41.049C131.338 41.3483 130.736 41.5039 130.125 41.5006C129.496 41.5246 128.874 41.3591 128.34 41.0254C127.806 40.6917 127.385 40.2053 127.131 39.6293L135.388 36.2141L135.107 35.5123ZM126.686 37.5709C126.657 37.1214 126.718 36.6706 126.865 36.245C127.013 35.8193 127.243 35.4273 127.544 35.0919C127.844 34.7564 128.209 34.4843 128.616 34.2914C129.023 34.0985 129.464 33.9888 129.914 33.9685C130.383 33.9377 130.85 34.0455 131.258 34.2784C131.665 34.5114 131.995 34.8592 132.207 35.2785L126.686 37.5709ZM119.973 43.559H122.686V25.4072H119.973V43.559ZM115.528 32.9626H115.435C115.022 32.5144 114.519 32.1595 113.958 31.9215C113.397 31.6835 112.792 31.5679 112.183 31.5825C110.591 31.6503 109.086 32.3306 107.984 33.4813C106.881 34.6319 106.265 36.1641 106.265 37.7579C106.265 39.3517 106.881 40.8839 107.984 42.0346C109.086 43.1853 110.591 43.8656 112.183 43.9333C112.795 43.9496 113.402 43.8325 113.964 43.5901C114.525 43.3477 115.027 42.9859 115.435 42.5299H115.528V43.4188C115.528 45.7814 114.265 47.0444 112.23 47.0444C111.552 47.0282 110.894 46.8104 110.34 46.4188C109.786 46.0272 109.361 45.4796 109.119 44.8456L106.757 45.8281C107.202 46.9123 107.961 47.8388 108.936 48.4889C109.911 49.139 111.058 49.4831 112.23 49.4772C115.412 49.4772 118.102 47.6059 118.102 43.0444V31.9567H115.528V32.9626ZM112.417 41.5006C111.48 41.4211 110.606 40.9923 109.969 40.2992C109.332 39.6061 108.979 38.6992 108.979 37.7579C108.979 36.8167 109.332 35.9098 109.969 35.2167C110.606 34.5236 111.48 34.0948 112.417 34.0153C112.884 34.0381 113.341 34.1546 113.762 34.3578C114.182 34.5611 114.558 34.847 114.866 35.1984C115.173 35.5498 115.407 35.9596 115.553 36.4034C115.699 36.8471 115.754 37.3157 115.716 37.7812C115.752 38.2439 115.695 38.7091 115.547 39.1491C115.4 39.5892 115.165 39.9949 114.857 40.3421C114.549 40.6894 114.175 40.9709 113.755 41.17C113.336 41.369 112.881 41.4815 112.417 41.5006V41.5006ZM147.818 25.4075H141.326V43.559H144.035V36.682H147.818C148.584 36.724 149.351 36.6093 150.071 36.345C150.792 36.0807 151.451 35.6722 152.008 35.1447C152.565 34.6171 153.009 33.9814 153.313 33.2765C153.616 32.5715 153.772 31.8122 153.772 31.0447C153.772 30.2773 153.616 29.5179 153.313 28.813C153.009 28.1081 152.565 27.4724 152.008 26.9448C151.451 26.4172 150.792 26.0088 150.071 25.7445C149.351 25.4802 148.584 25.3655 147.818 25.4075V25.4075ZM147.888 34.1558H144.035V27.9338H147.888C148.302 27.9252 148.713 27.9993 149.098 28.1518C149.483 28.3043 149.834 28.5321 150.129 28.8218C150.425 29.1116 150.66 29.4574 150.821 29.8391C150.981 30.2209 151.064 30.6308 151.064 31.0448C151.064 31.4589 150.981 31.8688 150.821 32.2505C150.66 32.6322 150.425 32.9781 150.129 33.2678C149.834 33.5575 149.483 33.7853 149.098 33.9378C148.713 34.0903 148.302 34.1644 147.888 34.1558V34.1558ZM164.631 31.5492C163.642 31.4914 162.658 31.7236 161.799 32.2173C160.941 32.7109 160.245 33.4445 159.797 34.328L162.202 35.3322C162.441 34.8937 162.802 34.5342 163.242 34.2978C163.681 34.0614 164.18 33.9582 164.678 34.0011C165.365 33.934 166.051 34.1421 166.585 34.5798C167.119 35.0176 167.458 35.6492 167.527 36.3363V36.5231C166.657 36.0609 165.686 35.8203 164.701 35.8226C162.109 35.8226 159.47 37.2471 159.47 39.9092C159.495 40.4703 159.633 41.0205 159.875 41.5274C160.117 42.0342 160.458 42.4873 160.879 42.8598C161.299 43.2322 161.79 43.5164 162.322 43.6955C162.854 43.8746 163.417 43.945 163.977 43.9024C164.659 43.9426 165.34 43.7991 165.948 43.487C166.555 43.1748 167.069 42.7054 167.433 42.1277H167.527V43.5288H170.142V36.5699C170.142 33.3473 167.737 31.5492 164.631 31.5492V31.5492ZM164.304 41.4971C163.417 41.4971 162.179 41.0535 162.179 39.9558C162.179 38.5548 163.72 38.0176 165.051 38.0176C165.916 37.9946 166.771 38.2043 167.527 38.6248C167.427 39.4121 167.046 40.1368 166.454 40.6648C165.861 41.1928 165.098 41.4885 164.304 41.4971V41.4971ZM179.67 31.9461L176.564 39.8157H176.471L173.248 31.9461H170.329L175.163 42.945L172.407 49.0632H175.233L182.682 31.9461H179.67ZM155.267 43.559H157.976V25.4075H155.267V43.559Z" fill="#5368F8"/>
<path fill-rule="evenodd" clip-rule="evenodd" d="M14.7465 11.5667C14.575 11.9551 14.4802 12.4311 14.4802 12.9847V45.0962C14.4802 45.651 14.5751 46.1269 14.7468 46.5151L32.2196 29.0398L14.7465 11.5667ZM15.7559 47.5594C16.4035 47.8365 17.2484 47.7487 18.1696 47.2262L38.7252 35.5455L33.2463 30.0665L15.7559 47.5594ZM40.0356 34.8024L46.4843 31.1385C48.5126 29.9842 48.5126 28.0981 46.4843 26.9453L40.0325 23.2792L34.2729 29.0397L40.0356 34.8024ZM38.7232 22.5352L18.1696 10.8561C17.2484 10.3326 16.4035 10.2452 15.7559 10.5227L33.2462 28.013L38.7232 22.5352Z" fill="#5368F8"/>
</g>
<defs>
<clipPath id="clip0_453_468">
<rect width="196.014" height="58.0786" fill="white"/>
</clipPath>
</defs>
</svg>
